<svg xmlns="http://www.w3.org/2000/svg" viewBox="0 0 128 128"><defs><linearGradient id="b" x1="0" x2="1" y1="0" y2="1"><stop stop-color="#ede5d3"/><stop offset="1" stop-color="#b79e68"/></linearGradient></defs><rect width="128" height="128" fill="url(#b)"/><path fill="#7d6541" d="M28 121c6-28 23-43 36-43s31 15 37 43Z"/><path fill="#4c3d2a" d="M46 121c3-22 12-35 18-35 9 0 18 13 23 35Z"/><path fill="#2a1d1d" d="M34 51c0-23 17-38 35-38 19 0 34 15 34 39 0 16-9 28-18 36H49c-10-8-15-20-15-37Z"/><path fill="#cfa07a" d="M43 55c0-17 12-28 27-28s27 11 27 28c0 21-13 35-27 35S43 76 43 55Z"/><path fill="#2a1d1d" d="M42 49c14-3 24-10 32-20 7 9 16 14 27 16-4-20-16-32-32-32-18 0-32 12-27 36Z"/><circle cx="60" cy="58" r="3" fill="#172019"/><circle cx="82" cy="58" r="3" fill="#172019"/><path fill="none" stroke="#805341" stroke-linecap="round" stroke-width="4" d="M62 75c5 3 12 3 17 0"/></svg>
